<svg width="100%" viewBox="0 0 680 200" role="img" xmlns="http://www.w3.org/2000/svg">
<title>Sparsh Koul - Glitch Header</title>
<desc>Glitch style profile banner for Sparsh Koul</desc>

<rect width="680" height="200" fill="#0a0a0a"/>

<rect x="0" y="0" width="680" height="200" fill="url(#scanpat)"/>
<defs>
  <pattern id="scanpat" x="0" y="0" width="1" height="4" patternUnits="userSpaceOnUse">
    <rect x="0" y="3" width="1" height="1" fill="#ffffff" opacity="0.03"/>
  </pattern>
  <clipPath id="glslice">
    <rect x="0" y="80" width="680" height="9"/>
  </clipPath>
</defs>

<line x1="0" y1="16" x2="680" y2="16" stroke="#f97316" stroke-width="0.5" opacity="0.25"/>
<line x1="0" y1="184" x2="680" y2="184" stroke="#f97316" stroke-width="0.5" opacity="0.25"/>
<line x1="0" y1="55" x2="680" y2="55" stroke="#ffffff" stroke-width="0.3" opacity="0.05"/>
<line x1="0" y1="100" x2="680" y2="100" stroke="#ffffff" stroke-width="0.3" opacity="0.05"/>
<line x1="0" y1="145" x2="680" y2="145" stroke="#ffffff" stroke-width="0.3" opacity="0.05"/>

<rect x="0" y="76" width="340" height="10" fill="#f97316" opacity="0.06"/>
<rect x="380" y="90" width="300" height="7" fill="#fb923c" opacity="0.05"/>
<rect x="0" y="120" width="120" height="5" fill="#f97316" opacity="0.07"/>

<rect x="0" y="88" width="25" height="3" fill="#f97316" opacity="0.7"/>
<rect x="655" y="108" width="25" height="3" fill="#fb923c" opacity="0.7"/>
<rect x="0" y="130" width="12" height="2" fill="#ffffff" opacity="0.4"/>
<rect x="210" y="62" width="60" height="2" fill="#f97316" opacity="0.35"/>
<rect x="500" y="72" width="40" height="2" fill="#fb923c" opacity="0.25"/>

<text font-family="monospace" font-size="62" font-weight="700"
  letter-spacing="5" text-anchor="middle"
  x="344" y="113" fill="#f97316" opacity="0.5" transform="translate(-3,1)">SPARSH KOUL</text>

<text font-family="monospace" font-size="62" font-weight="700"
  letter-spacing="5" text-anchor="middle"
  x="344" y="113" fill="#fed7aa" opacity="0.45" transform="translate(3,-1)">SPARSH KOUL</text>

<text font-family="monospace" font-size="62" font-weight="700"
  letter-spacing="5" text-anchor="middle"
  x="340" y="113" fill="#ffffff">SPARSH KOUL</text>

<text font-family="monospace" font-size="62" font-weight="700"
  letter-spacing="5" text-anchor="middle"
  x="343" y="113" fill="#f97316" opacity="0.85" clip-path="url(#glslice)"
  transform="translate(-5,0)">SPARSH KOUL</text>

<text font-family="monospace" font-size="12" font-weight="400"
  letter-spacing="9" text-anchor="middle"
  x="343" y="148" fill="#f97316" opacity="0.4" transform="translate(2,0)">JAVA DEV  •  FULL STACK  •  AI BUILDER</text>
<text font-family="monospace" font-size="12" font-weight="400"
  letter-spacing="9" text-anchor="middle"
  x="340" y="148" fill="#ffffff" opacity="0.95">JAVA DEV  •  FULL STACK  •  AI BUILDER</text>

<line x1="240" y1="160" x2="440" y2="160" stroke="#f97316" stroke-width="0.6" opacity="0.45"/>
<line x1="238" y1="160" x2="242" y2="160" stroke="#f97316" stroke-width="2" opacity="0.9"/>
<line x1="438" y1="160" x2="442" y2="160" stroke="#f97316" stroke-width="2" opacity="0.9"/>

<g stroke="#f97316" stroke-width="1.2" fill="none" opacity="0.8">
  <polyline points="22,22 22,13 31,13"/>
  <polyline points="658,22 658,13 649,13"/>
  <polyline points="22,178 22,187 31,187"/>
  <polyline points="658,178 658,187 649,187"/>
</g>

<text font-family="monospace" font-size="9"
  text-anchor="start" x="22" y="196"
  fill="#f97316" opacity="0.6" letter-spacing="2">SK_2025</text>

<text font-family="monospace" font-size="9"
  text-anchor="end" x="658" y="196"
  fill="#f97316" opacity="0.6" letter-spacing="2">v2.0.1</text>

</svg>
