<svg width="550" height="620" viewBox="0 0 550 620" fill="none" xmlns="http://www.w3.org/2000/svg" xmlns:xlink="http://www.w3.org/1999/xlink">
  <style>
    .bubble {
      fill: #e9e9eb;
    }
    a {
      fill: #0079ff;
    }
    text {
      fill: #242424;
      font-size: 18px;
      font-family: 'Inter', -apple-system, BlinkMacSystemFont, "Segoe UI", Roboto, Helvetica, Arial, sans-serif;
      letter-spacing: -0.02em;
    }

    .emoji {
      font-family: -apple-system, BlinkMacSystemFont, "Segoe UI", Helvetica, Arial, sans-serif, "Apple Color Emoji", "Segoe UI Emoji", "Segoe UI Symbol";
    }

    .divider {
      stroke: #d0d7de;
    }

    .typing-1 {
      opacity: 0;
      animation: fade-in-out 1.5s;
    }

    .msg-1 {
      animation: wait 1.7s, msg-1 0.2s 1.7s;
    }

    .typing-2 {
      opacity: 0;
      animation: wait 2.5s, fade-in-out 1.5s 2.5s;
    }

    .msg-2 {
      animation: wait 4.2s, msg-2 0.2s 4.2s;
    }

    .typing-3 {
      opacity: 0;
      animation: wait 5s, fade-in-out 1.5s 5s;
    }

    .msg-3 {
      animation: wait 6.7s, msg-3 0.2s 6.7s;
    }

    .typing-4 {
      opacity: 0;
      animation: wait 7.5s, fade-in-out 1.5s 7.5s;
    }

    .msg-4 {
      animation: wait 9.2s, msg-4 0.2s 9.2s;
    }

    .typing-5 {
      opacity: 0;
      animation: wait 10s, fade-in-out 1.5s 10s;
    }

    .msg-5 {
      animation: wait 11.7s, msg-5 0.2s 11.7s;
    }

    .typing-6 {
      opacity: 0;
      animation: wait 12.5s, fade-in-out 1.5s 12.5s;
    }

    .msg-6 {
      animation: wait 14.2s, msg-6 0.2s 14.2s;
    }

    @keyframes wait {
      0%,
      100% {
        opacity: 0;
      }
    }

    @keyframes fade-in-out {
      0%,
      100% {
        opacity: 0;
      }
      25%,
      90% {
        opacity: 1;
      }
    }

    @keyframes msg-1 {
      0% {
        opacity: 0;
        transform: translate(10px, 5px);
      }
      100% {
        opacity: 1;
        transform: translate(10px, 0);
      }
    }

    @keyframes msg-2 {
      0% {
        opacity: 0;
        transform: translate(10px, 53px);
      }
      100% {
        opacity: 1;
        transform: translate(10px, 48px);
      }
    }

    @keyframes msg-3 {
      0% {
        opacity: 0;
        transform: translate(10px, 125px);
      }
      100% {
        opacity: 1;
        transform: translate(10px, 120px);
      }
    }

    @keyframes msg-4 {
      0% {
        opacity: 0;
        transform: translate(10px, 197px);
      }
      100% {
        opacity: 1;
        transform: translate(10px, 192px);
      }
    }

    @keyframes msg-5 {
      0% {
        opacity: 0;
        transform: translate(10px, 517px);
      }
      100% {
        opacity: 1;
        transform: translate(10px, 512px);
      }
    }

    @keyframes msg-6 {
      0% {
        opacity: 0;
        transform: translate(10px, 565px);
      }
      100% {
        opacity: 1;
        transform: translate(10px, 560px);
      }
    }

    @media (prefers-color-scheme: dark) {
      .bubble {
        fill: #3b3b3d;
      }
      text {
        fill: #dcdcdc;
      }
      a {
        fill: #0c82f9;
      }
      .divider {
        stroke: #545d68;
      }
    }
  </style>

  <!-- typing 1 -->
  <g transform="translate(10, 0)" class="typing-1">
    <rect x="8.27246" width="69.7276" height="42" rx="20.9774" class="bubble" />
    <circle cx="13.591" cy="33.091" r="7.68185" class="bubble" />
    <circle cx="3.54547" cy="41.9547" r="3.54547" class="bubble" />

    <circle cx="27.4778" cy="20.9773" r="5.02275" fill="#999999">
      <animate attributeName="opacity" values="0.5;1;0.5" dur="1s" repeatCount="indefinite" />
    </circle>
    <circle cx="42.8411" cy="20.9773" r="5.02275" fill="#999999">
      <animate attributeName="opacity" values="0.5;1;0.5" dur="1s" begin="0.2s" repeatCount="indefinite" />
    </circle>
    <circle cx="58.2054" cy="20.9773" r="5.02275" fill="#999999">
      <animate attributeName="opacity" values="0.5;1;0.5" dur="1s" begin="0.4s" repeatCount="indefinite" />
    </circle>
  </g>

  <!-- Hi, I'm Sparsh -->
  <g transform="translate(10, 0)" class="msg-1">
    <rect width="140" height="42" rx="18" class="bubble" />
    <text x="15" y="27">Hi, I'm Sparsh</text>
  </g>

  <!-- typing 2 -->
  <g transform="translate(10, 48)" class="typing-2">
    <rect x="8.27246" width="69.7276" height="42" rx="20.9774" class="bubble" />
    <circle cx="13.591" cy="33.091" r="7.68185" class="bubble" />
    <circle cx="3.54547" cy="41.9547" r="3.54547" class="bubble" />

    <circle cx="27.4778" cy="20.9773" r="5.02275" fill="#999999">
      <animate attributeName="opacity" values="0.5;1;0.5" dur="1s" repeatCount="indefinite" />
    </circle>
    <circle cx="42.8411" cy="20.9773" r="5.02275" fill="#999999">
      <animate attributeName="opacity" values="0.5;1;0.5" dur="1s" begin="0.2s" repeatCount="indefinite" />
    </circle>
    <circle cx="58.2054" cy="20.9773" r="5.02275" fill="#999999">
      <animate attributeName="opacity" values="0.5;1;0.5" dur="1s" begin="0.4s" repeatCount="indefinite" />
    </circle>
  </g>

  <!-- From Kashmir... -->
  <g transform="translate(10, 48)" class="msg-2">
    <rect width="470" height="66" rx="18" class="bubble" />
    <text x="15" y="27">I'm from Kashmir, India – currently in college,</text>
    <text x="15" y="50">graduating from Chitkara University in 2028.</text>
  </g>

  <!-- typing 3 -->
  <g transform="translate(10, 120)" class="typing-3">
    <rect x="8.27246" width="69.7276" height="42" rx="20.9774" class="bubble" />
    <circle cx="13.591" cy="33.091" r="7.68185" class="bubble" />
    <circle cx="3.54547" cy="41.9547" r="3.54547" class="bubble" />

    <circle cx="27.4778" cy="20.9773" r="5.02275" fill="#999999">
      <animate attributeName="opacity" values="0.5;1;0.5" dur="1s" repeatCount="indefinite" />
    </circle>
    <circle cx="42.8411" cy="20.9773" r="5.02275" fill="#999999">
      <animate attributeName="opacity" values="0.5;1;0.5" dur="1s" begin="0.2s" repeatCount="indefinite" />
    </circle>
    <circle cx="58.2054" cy="20.9773" r="5.02275" fill="#999999">
      <animate attributeName="opacity" values="0.5;1;0.5" dur="1s" begin="0.4s" repeatCount="indefinite" />
    </circle>
  </g>

  <!-- Work -->
  <g transform="translate(10, 120)" class="msg-3">
    <rect width="470" height="66" rx="18" class="bubble" />
    <text x="15" y="27">I’m a Full Stack &amp; AI Developer. I’ve been building</text>
    <text x="15" y="50">software &amp; open-source projects.</text>
  </g>

  <!-- typing 4 -->
  <g transform="translate(10, 192)" class="typing-4">
    <rect x="8.27246" width="69.7276" height="42" rx="20.9774" class="bubble" />
    <circle cx="13.591" cy="33.091" r="7.68185" class="bubble" />
    <circle cx="3.54547" cy="41.9547" r="3.54547" class="bubble" />

    <circle cx="27.4778" cy="20.9773" r="5.02275" fill="#999999">
      <animate attributeName="opacity" values="0.5;1;0.5" dur="1s" repeatCount="indefinite" />
    </circle>
    <circle cx="42.8411" cy="20.9773" r="5.02275" fill="#999999">
      <animate attributeName="opacity" values="0.5;1;0.5" dur="1s" begin="0.2s" repeatCount="indefinite" />
    </circle>
    <circle cx="58.2054" cy="20.9773" r="5.02275" fill="#999999">
      <animate attributeName="opacity" values="0.5;1;0.5" dur="1s" begin="0.4s" repeatCount="indefinite" />
    </circle>
  </g>

  <!-- GitHub, LinkedIn, Portfolio & Skills Justified Icon Grid -->
  <g transform="translate(10, 192)" class="msg-4">
    <rect width="500" height="312" rx="18" class="bubble" />
    <text x="15" y="24" font-weight="500">You can find me on:</text>

    <!-- GitHub Line -->
    <g transform="translate(15, 36)">
      <g transform="translate(0, 0) scale(0.667)">
        <path fill="#8c95a3" d="M12 0C5.37 0 0 5.37 0 12c0 5.31 3.435 9.795 8.205 11.385.6.105.825-.255.825-.57 0-.285-.015-1.23-.015-2.235-3.015.555-3.795-.735-4.035-1.41-.135-.345-.72-1.41-1.23-1.695-.42-.225-1.02-.78-.015-.795.945-.015 1.62.87 1.845 1.23 1.08 1.815 2.805 1.305 3.495.99.105-.78.42-1.305.765-1.605-2.67-.3-5.46-1.335-5.46-5.925 0-1.305.465-2.385 1.23-3.225-.12-.3-.54-1.53.12-3.18 0 0 1.005-.315 3.3 1.23.96-.27 1.98-.405 3-.405s2.04.135 3 .405c2.295-1.56 3.3-1.23 3.3-1.23.66 1.65.24 2.88.12 3.18.765.84 1.23 1.905 1.23 3.225 0 4.605-2.805 5.625-5.475 5.925.435.375.81 1.095.81 2.22 0 1.605-.015 2.895-.015 3.3 0 .315.225.69.825.57A12.02 12.02 0 0024 12c0-6.63-5.37-12-12-12z" />
      </g>
      <text x="22" y="13"><a xlink:href="https://github.com/SparshKoul">https://github.com/SparshKoul</a></text>
    </g>

    <!-- LinkedIn Line -->
    <g transform="translate(15, 60)">
      <g transform="translate(0, 0) scale(0.667)">
        <path fill="#0A66C2" d="M19 3a2 2 0 0 1 2 2v14a2 2 0 0 1-2 2H5a2 2 0 0 1-2-2V5a2 2 0 0 1 2-2h14m-.5 15.5v-5.3a3.26 3.26 0 0 0-3.26-3.26c-.85 0-1.84.52-2.28 1.3v-1.11h-2.79v8.37h2.79v-4.93c0-.77.62-1.4 1.39-1.4a1.4 1.4 0 0 1 1.4 1.4v4.93h2.75M6.88 8.56a1.68 1.68 0 0 0 1.68-1.68c0-.93-.75-1.69-1.68-1.69a1.69 1.69 0 0 0-1.69 1.69c0 .93.76 1.68 1.69 1.68m1.39 9.94v-8.37H5.5v8.37h2.77z" />
      </g>
      <text x="22" y="13"><a xlink:href="https://www.linkedin.com/in/sparshkoul">linkedin.com/in/sparshkoul</a></text>
    </g>

    <!-- Portfolio Line -->
    <g transform="translate(15, 84)">
      <g transform="translate(0, 0) scale(0.667)">
        <path fill="#0079ff" d="M12 2C6.48 2 2 6.48 2 12s4.48 10 10 10 10-4.48 10-10S17.52 2 12 2zm-1 17.93c-3.95-.49-7-3.85-7-7.93 0-.62.08-1.21.21-1.79L9 15v1c0 1.1.9 2 2 2v1.93zm6.9-2.54c-.26-.81-1-1.39-1.9-1.39h-1v-3c0-.55-.45-1-1-1H8v-2h2c.55 0 1-.45 1-1V7h2c1.1 0 2-.9 2-2v-.41c2.93 1.19 5 4.06 5 7.41 0 2.08-.8 3.97-2.1 5.39z" />
      </g>
      <text x="22" y="13"><a xlink:href="https://sparshkoul.live">https://sparshkoul.live</a></text>
    </g>

    <line x1="15" y1="114" x2="485" y2="114" stroke-width="1" class="divider" opacity="0.6" />
    <text x="15" y="140" font-size="14" font-weight="600">Skills &amp; Tech Stack:</text>

    <g id="skills-badge-grid">
      <!-- Skill badges injected here at build time -->
    </g>
  </g>

  <!-- typing 5 -->
  <g transform="translate(10, 512)" class="typing-5">
    <rect x="8.27246" width="69.7276" height="42" rx="20.9774" class="bubble" />
    <circle cx="13.591" cy="33.091" r="7.68185" class="bubble" />
    <circle cx="3.54547" cy="41.9547" r="3.54547" class="bubble" />

    <circle cx="27.4778" cy="20.9773" r="5.02275" fill="#999999">
      <animate attributeName="opacity" values="0.5;1;0.5" dur="1s" repeatCount="indefinite" />
    </circle>
    <circle cx="42.8411" cy="20.9773" r="5.02275" fill="#999999">
      <animate attributeName="opacity" values="0.5;1;0.5" dur="1s" begin="0.2s" repeatCount="indefinite" />
    </circle>
    <circle cx="58.2054" cy="20.9773" r="5.02275" fill="#999999">
      <animate attributeName="opacity" values="0.5;1;0.5" dur="1s" begin="0.4s" repeatCount="indefinite" />
    </circle>
  </g>

  <!-- Thanks -->
  <g transform="translate(10, 512)" class="msg-5">
    <rect width="210" height="42" rx="18" class="bubble" />
    <text x="15" y="27">Thanks for stopping by</text>
  </g>

  <!-- typing 6 -->
  <g transform="translate(10, 560)" class="typing-6">
    <rect x="8.27246" width="69.7276" height="42" rx="20.9774" class="bubble" />
    <circle cx="13.591" cy="33.091" r="7.68185" class="bubble" />
    <circle cx="3.54547" cy="41.9547" r="3.54547" class="bubble" />

    <circle cx="27.4778" cy="20.9773" r="5.02275" fill="#999999">
      <animate attributeName="opacity" values="0.5;1;0.5" dur="1s" repeatCount="indefinite" />
    </circle>
    <circle cx="42.8411" cy="20.9773" r="5.02275" fill="#999999">
      <animate attributeName="opacity" values="0.5;1;0.5" dur="1s" begin="0.2s" repeatCount="indefinite" />
    </circle>
    <circle cx="58.2054" cy="20.9773" r="5.02275" fill="#999999">
      <animate attributeName="opacity" values="0.5;1;0.5" dur="1s" begin="0.4s" repeatCount="indefinite" />
    </circle>
  </g>

  <!-- Have a great... -->
  <g transform="translate(10, 560)" class="msg-6">
    <rect width="280" height="42" rx="18" class="bubble" id="msg-6-bubble" />
    <text x="15" y="27">Have a great Saturday! <tspan class="emoji">👋🏻</tspan></text>
  </g>
</svg>